<?xml version="1.0" encoding="UTF-8" standalone="no"?>
<svg
   xmlns:dc="http://purl.org/dc/elements/1.1/"
   xmlns:cc="http://creativecommons.org/ns#"
   xmlns:rdf="http://www.w3.org/1999/02/22-rdf-syntax-ns#"
   xmlns:svg="http://www.w3.org/2000/svg"
   xmlns="http://www.w3.org/2000/svg"
   id="svg923"
   version="1.1"
   viewBox="0 0 61.054203 13.953313"
   height="52.736931"
   width="230.75604">
  <defs
     id="defs917" />
  <metadata
     id="metadata920">
    <rdf:RDF>
      <cc:Work
         rdf:about="">
        <dc:format>image/svg+xml</dc:format>
        <dc:type
           rdf:resource="http://purl.org/dc/dcmitype/StillImage" />
        <dc:title></dc:title>
      </cc:Work>
    </rdf:RDF>
  </metadata>
  <g
     transform="translate(-1.2228993,-166.04715)"
     id="layer1">
    <g
       id="g894"
       transform="translate(-6.9376642,151.14264)">
      <text
         xml:space="preserve"
         style="font-style:normal;font-variant:normal;font-weight:normal;font-stretch:normal;font-size:5.98138237px;line-height:121.00000381%;font-family:Roboto;-inkscape-font-specification:'Roboto, Normal';text-align:start;letter-spacing:0px;word-spacing:0px;writing-mode:lr-tb;text-anchor:start;fill:#0e232e;fill-opacity:1;stroke:none;stroke-width:0.19937941px;stroke-linecap:butt;stroke-linejoin:miter;stroke-opacity:1"
         x="8.1605635"
         y="22.100948"
         id="text830"><tspan
           id="tspan828"
           x="8.1605635"
           y="22.100948"
           style="font-style:normal;font-variant:normal;font-weight:normal;font-stretch:normal;font-family:'Long Haired Freaky People';-inkscape-font-specification:'Long Haired Freaky People';fill:#0e232e;stroke-width:0.19937941px">LA GUEPE         QUI DIT <tspan
   style="fill:#feb000;fill-opacity:1;stroke-width:0.19937941px"
   id="tspan1064">NIET</tspan> !</tspan></text>
      <g
         id="g1062"
         transform="matrix(0.0668338,0,0,0.0668338,47.963076,21.273609)">
        <path
           id="path1055"
           d="m -226.32196,36.601046 c 0,-0.5075 0.29253,-2.04861 0.65006,-3.42469 0.90169,-3.4704 1.4437,-8.7006 1.67051,-16.11986 l 0.19297,-6.31208 3.80933,0.0411 c 4.51009,0.0486 7.36349,0.49983 11.13963,1.76151 4.06362,1.35772 6.35,2.7795 6.35,3.94871 0,0.80031 -1.05057,2.27901 -3.89917,5.48817 -7.18935,8.09933 -16.37454,15.5399 -19.18362,15.5399 -0.65707,0 -0.72971,-0.0919 -0.72971,-0.92274 z"
           style="fill:#0e232e;stroke-width:0.26458335" />
        <path
           id="path1053"
           d="m -200.2605,7.9647263 c -0.29104,-0.0709 -1.6068,-0.47181 -2.92391,-0.89091 -3.77005,-1.19959 -8.10171,-1.87434 -14.27401,-2.2235 -1.45521,-0.0823 -3.58127,-0.21939 -4.72459,-0.3046 l -2.07877,-0.15493 0.0964,-2.81423 c 0.0852,-2.48667998 0.18011,-2.95694 0.8152,-4.04037 1.5733,-2.68399 4.92796,-4.76692 8.93442,-5.54744 2.21335,-0.43119 12.23015,-0.43273 15.61041,-0.002 5.32697,0.67817 5.7494,0.98972 5.28887,3.9006 -0.35203,2.22506 -2.05873,7.42057 -3.12897,9.52512 -1.29206,2.54074 -1.90053,2.97038 -3.61511,2.55266 z"
           style="fill:#feb000;fill-opacity:1;stroke-width:0.26458335" />
        <path
           id="path1051"
           d="m -226.58654,-9.9549237 c 0,-0.9349203 3.45768,-5.4858803 6.46788,-8.5129503 6.07534,-6.10939 13.64284,-10.89603 23.29774,-14.73641 9.99183,-3.9744 18.77232,-5.67052 27.91354,-5.39203 10.42554,0.31762 15.7926,1.9722 20.20437,6.22867 2.2361,2.15739 2.80857,3.51542 2.81179,6.67021 0.003,3.17208 -0.56876,4.4572 -3.11937,7.00816 -4.16813,4.1687 -9.69783,6.1155 -19.1802,6.75262 -6.19599,0.41631 -13.29716,0.0332 -25.45513,-1.37336 -8.20149,-0.94883 -15.70892,-1.24794 -19.25141,-0.76703 -3.72142,0.5052 -7.27648,1.61995 -12.16786,3.81546 -1.17137,0.5257703 -1.52135,0.5963203 -1.52135,0.3066603 z"
           style="fill:#0e232e;stroke-width:0.26458335" />
        <path
           id="path1049"
           d="m -227.75176,-19.055944 c -0.19503,-0.31555 0.74245,-4.1474 1.85489,-7.58173 4.06419,-12.54697 11.73452,-24.83478 22.18254,-35.53625 8.62581,-8.83506 13.83321,-12.7039 23.95904,-17.80038 8.89965,-4.47933 15.82691,-6.5206 23.01875,-6.78299 6.02925,-0.21997 9.88287,0.85574 12.52276,3.49562 1.73008,1.73008 2.35872,3.25071 2.50454,6.05829 0.2751,5.29686 -1.26057,8.32812 -7.25699,14.32454 -6.05077,6.05076 -12.10324,9.84658 -21.9355,13.75687 -1.74076,0.6923 -7.92752,2.83268 -13.74835,4.75639 -5.82084,1.92372 -12.01209,4.06248 -13.75834,4.75279 -7.35896,2.90911 -14.05391,6.72656 -18.78725,10.71248 -1.19042,1.00244 -3.93212,3.67779 -6.09267,5.94523 -2.16055,2.26744 -4.01761,4.12262 -4.12679,4.12262 -0.10919,0 -0.26067,-0.10057 -0.33663,-0.22348 z"
           style="fill:#feb000;fill-opacity:1;stroke-width:0.26458335" />
        <path
           id="path1045"
           d="m -248.76873,-29.574344 c -0.75943,-0.53192 -1.92517,-2.86734 -2.77209,-5.55357 -2.39616,-7.60002 -2.86588,-18.31734 -1.10059,-25.11156 0.78527,-3.02233 0.81377,-3.96978 0.15207,-5.05492 -1.0099,-1.65616 -8.02038,-5.51718 -11.68514,-6.43559 -1.10081,-0.27587 -3.98887,-0.69734 -6.4179,-0.93661 -4.21686,-0.41536 -6.87256,-0.94848 -7.17676,-1.44069 -0.0774,-0.12525 0.055,-0.39004 0.29414,-0.58843 0.32942,-0.27323 1.49981,-0.35914 4.82574,-0.35423 3.92645,0.006 4.65847,0.0807 6.92135,0.70824 5.0322,1.39552 9.23354,3.57836 13.32005,6.92055 l 2.09222,1.71115 1.70199,-2.02738 c 0.93609,-1.11506 1.88994,-2.41026 2.11966,-2.87824 0.40583,-0.82673 0.39064,-0.90555 -0.5353,-2.77813 -0.52413,-1.05999 -1.8907,-3.05835 -3.03682,-4.4408 -4.77846,-5.76376 -8.90313,-8.5861 -18.58919,-12.71975 -3.20898,-1.36948 -4.7625,-2.42896 -4.7625,-3.24798 0,-0.21892 0.32743,-0.65746 0.72761,-0.97454 1.20254,-0.95283 3.17068,-0.61575 6.76408,1.15846 8.80839,4.3491 15.68161,10.67213 20.44516,18.80854 0.81516,1.39234 1.59285,2.53152 1.72819,2.53152 0.13535,0 1.09017,-0.42507 2.12182,-0.9446 2.65995,-1.33953 5.34679,-1.96662 8.40599,-1.9619 2.91376,0.004 5.49351,0.53377 7.05129,1.44669 2.96484,1.73751 6.00483,5.59402 7.05825,8.95404 0.76267,2.43264 0.81342,6.83422 0.10883,9.43911 -1.39749,5.16653 -5.50398,11.22902 -10.62267,15.68245 -3.97128,3.45515 -12.39285,8.60359 -16.00729,9.7859 -2.11096,0.69051 -2.52136,0.73011 -3.13219,0.30227 z"
           style="fill:#0e232e;stroke-width:0.26458335" />
      </g>
      <text
         xml:space="preserve"
         style="font-style:normal;font-variant:normal;font-weight:normal;font-stretch:normal;font-size:4.08327579px;line-height:121.00000381%;font-family:Roboto;-inkscape-font-specification:'Roboto, Normal';font-variant-ligatures:normal;font-variant-caps:normal;font-variant-numeric:normal;font-feature-settings:normal;text-align:start;letter-spacing:0px;word-spacing:0px;writing-mode:lr-tb;text-anchor:start;fill:#000000;fill-opacity:1;stroke:none;stroke-width:0.25520474px;stroke-linecap:butt;stroke-linejoin:miter;stroke-opacity:1"
         x="7.9476843"
         y="28.817951"
         id="text1232"><tspan
           x="7.9476843"
           y="28.817951"
           style="stroke-width:0.25520474px"
           id="tspan1234">Drives fermiers sans commission.</tspan><tspan
           x="7.9476843"
           y="33.758717"
           style="stroke-width:0.25520474px"
           id="tspan1238" /></text>
    </g>
  </g>
</svg>
